<?xml version="1.0" encoding="UTF-8" standalone="no"?>
<!-- Created with Inkscape (http://www.inkscape.org/) -->

<svg
   id="svg2160"
   height="600"
   width="800"
   version="1.1"
   inkscape:version="1.1.2 (0a00cf5339, 2022-02-04, custom)"
   sodipodi:docname="01-preimage.svg"
   xmlns:inkscape="http://www.inkscape.org/namespaces/inkscape"
   xmlns:sodipodi="http://sodipodi.sourceforge.net/DTD/sodipodi-0.dtd"
   xmlns:xlink="http://www.w3.org/1999/xlink"
   xmlns="http://www.w3.org/2000/svg"
   xmlns:svg="http://www.w3.org/2000/svg"
   xmlns:rdf="http://www.w3.org/1999/02/22-rdf-syntax-ns#"
   xmlns:cc="http://creativecommons.org/ns#"
   xmlns:dc="http://purl.org/dc/elements/1.1/">
  <sodipodi:namedview
     pagecolor="#ffffff"
     bordercolor="#666666"
     borderopacity="1"
     objecttolerance="10"
     gridtolerance="10"
     guidetolerance="10"
     inkscape:pageopacity="0"
     inkscape:pageshadow="2"
     inkscape:window-width="1920"
     inkscape:window-height="1080"
     id="namedview34"
     showgrid="false"
     inkscape:zoom="1.2317268"
     inkscape:cx="505.794"
     inkscape:cy="297.54976"
     inkscape:window-x="0"
     inkscape:window-y="0"
     inkscape:window-maximized="0"
     inkscape:current-layer="svg2160"
     inkscape:pagecheckerboard="0"
     inkscape:snap-page="true">
    <inkscape:grid
       type="xygrid"
       id="grid4668"
       originx="1076.8414"
       originy="2.0273027" />
  </sodipodi:namedview>
  <defs
     id="defs2162">
    <marker
       inkscape:stockid="Arrow1Lend"
       orient="auto"
       refY="0"
       refX="0"
       id="Arrow1Lend"
       style="overflow:visible">
      <path
         id="path3839"
         d="M 0,0 5,-5 -12.5,0 5,5 Z"
         style="fill-rule:evenodd;stroke:#000000;stroke-width:1pt"
         transform="matrix(-0.8,0,0,-0.8,-10,0)" />
    </marker>
    <marker
       inkscape:stockid="DotM"
       orient="auto"
       refY="0"
       refX="0"
       id="DotM"
       style="overflow:visible">
      <path
         id="path3900"
         d="m -2.5,-1 c 0,2.76 -2.24,5 -5,5 -2.76,0 -5,-2.24 -5,-5 0,-2.76 2.24,-5 5,-5 2.76,0 5,2.24 5,5 z"
         style="fill-rule:evenodd;stroke:#000000;stroke-width:1pt"
         transform="matrix(0.4,0,0,0.4,2.96,0.4)" />
    </marker>
    <marker
       inkscape:stockid="Arrow2Mend"
       orient="auto"
       refY="0"
       refX="0"
       id="Arrow2Mend"
       style="overflow:visible">
      <path
         id="path3842"
         style="fill-rule:evenodd;stroke-width:0.625;stroke-linejoin:round"
         d="M 8.7185878,4.0337352 -2.2072895,0.01601326 8.7185884,-4.0017078 c -1.7454984,2.3720609 -1.7354408,5.6174519 -6e-7,8.035443 z"
         transform="scale(-0.6)"
         inkscape:connector-curvature="0" />
    </marker>
    <marker
       inkscape:stockid="Arrow1Mstart"
       orient="auto"
       refY="0"
       refX="0"
       id="Arrow1Mstart"
       style="overflow:visible">
      <path
         id="path3821"
         d="M 0,0 5,-5 -12.5,0 5,5 Z"
         style="fill-rule:evenodd;stroke:#000000;stroke-width:1pt"
         transform="matrix(0.4,0,0,0.4,4,0)"
         inkscape:connector-curvature="0" />
    </marker>
    <marker
       inkscape:stockid="DotL"
       orient="auto"
       refY="0"
       refX="0"
       id="DotL"
       style="overflow:visible">
      <path
         id="path3876"
         d="m -2.5,-1 c 0,2.76 -2.24,5 -5,5 -2.76,0 -5,-2.24 -5,-5 0,-2.76 2.24,-5 5,-5 2.76,0 5,2.24 5,5 z"
         style="fill-rule:evenodd;stroke:#000000;stroke-width:1pt"
         transform="matrix(0.8,0,0,0.8,5.92,0.8)"
         inkscape:connector-curvature="0" />
    </marker>
    <marker
       id="TriangleOutL"
       refY="0"
       refX="0"
       orient="auto"
       overflow="visible"
       style="overflow:visible">
      <path
         id="path4246"
         d="M 5.77,0 -2.88,5 V -5 Z"
         transform="scale(0.8)"
         inkscape:connector-curvature="0"
         style="fill-rule:evenodd;stroke:#000000;stroke-width:1pt" />
    </marker>
    <marker
       inkscape:stockid="DotM"
       orient="auto"
       refY="0"
       refX="0"
       id="DotM-3"
       style="overflow:visible">
      <path
         id="path3900-6"
         d="m -2.5,-1 c 0,2.76 -2.24,5 -5,5 -2.76,0 -5,-2.24 -5,-5 0,-2.76 2.24,-5 5,-5 2.76,0 5,2.24 5,5 z"
         style="fill-rule:evenodd;stroke:#000000;stroke-width:1pt"
         transform="matrix(0.4,0,0,0.4,2.96,0.4)" />
    </marker>
    <marker
       inkscape:stockid="Arrow1Lend"
       orient="auto"
       refY="0"
       refX="0"
       id="Arrow1Lend-7"
       style="overflow:visible">
      <path
         id="path3839-5"
         d="M 0,0 5,-5 -12.5,0 5,5 Z"
         style="fill-rule:evenodd;stroke:#000000;stroke-width:1pt"
         transform="matrix(-0.8,0,0,-0.8,-10,0)" />
    </marker>
    <marker
       inkscape:stockid="DotM"
       orient="auto"
       refY="0"
       refX="0"
       id="marker1013"
       style="overflow:visible">
      <path
         id="path1011"
         d="m -2.5,-1 c 0,2.76 -2.24,5 -5,5 -2.76,0 -5,-2.24 -5,-5 0,-2.76 2.24,-5 5,-5 2.76,0 5,2.24 5,5 z"
         style="fill-rule:evenodd;stroke:#000000;stroke-width:1pt"
         transform="matrix(0.4,0,0,0.4,2.96,0.4)" />
    </marker>
    <marker
       inkscape:stockid="Arrow1Lend"
       orient="auto"
       refY="0"
       refX="0"
       id="marker1017"
       style="overflow:visible">
      <path
         id="path1015"
         d="M 0,0 5,-5 -12.5,0 5,5 Z"
         style="fill-rule:evenodd;stroke:#000000;stroke-width:1pt"
         transform="matrix(-0.8,0,0,-0.8,-10,0)" />
    </marker>
    <marker
       inkscape:stockid="DotM"
       orient="auto"
       refY="0"
       refX="0"
       id="marker1021"
       style="overflow:visible">
      <path
         id="path1019"
         d="m -2.5,-1 c 0,2.76 -2.24,5 -5,5 -2.76,0 -5,-2.24 -5,-5 0,-2.76 2.24,-5 5,-5 2.76,0 5,2.24 5,5 z"
         style="fill-rule:evenodd;stroke:#000000;stroke-width:1pt"
         transform="matrix(0.4,0,0,0.4,2.96,0.4)" />
    </marker>
    <marker
       inkscape:stockid="Arrow1Lend"
       orient="auto"
       refY="0"
       refX="0"
       id="marker1025"
       style="overflow:visible">
      <path
         id="path1023"
         d="M 0,0 5,-5 -12.5,0 5,5 Z"
         style="fill-rule:evenodd;stroke:#000000;stroke-width:1pt"
         transform="matrix(-0.8,0,0,-0.8,-10,0)" />
    </marker>
    <marker
       inkscape:stockid="DotM"
       orient="auto"
       refY="0"
       refX="0"
       id="DotM-3-9"
       style="overflow:visible">
      <path
         id="path3900-6-2"
         d="m -2.5,-1 c 0,2.76 -2.24,5 -5,5 -2.76,0 -5,-2.24 -5,-5 0,-2.76 2.24,-5 5,-5 2.76,0 5,2.24 5,5 z"
         style="fill-rule:evenodd;stroke:#000000;stroke-width:1pt"
         transform="matrix(0.4,0,0,0.4,2.96,0.4)" />
    </marker>
    <marker
       inkscape:stockid="Arrow1Lend"
       orient="auto"
       refY="0"
       refX="0"
       id="Arrow1Lend-7-2"
       style="overflow:visible">
      <path
         id="path3839-5-8"
         d="M 0,0 5,-5 -12.5,0 5,5 Z"
         style="fill-rule:evenodd;stroke:#000000;stroke-width:1pt"
         transform="matrix(-0.8,0,0,-0.8,-10,0)" />
    </marker>
  </defs>
  <metadata
     id="metadata2165">
    <rdf:RDF>
      <cc:Work
         rdf:about="">
        <dc:format>image/svg+xml</dc:format>
        <dc:type
           rdf:resource="http://purl.org/dc/dcmitype/StillImage" />
      </cc:Work>
    </rdf:RDF>
  </metadata>
  <path
     id="path2168-3"
     d="m 156.30799,18.748121 a 244.27081,134.78957 89.120825 1 1 -0.31737,-0.06394"
     inkscape:connector-curvature="0"
     style="fill:#ff7c7c;fill-opacity:1;stroke:#c27f83;stroke-width:1.09739;stroke-opacity:0.52597" />
  <path
     id="path2168-3-5"
     d="m 156.11502,37.39514 a 171.42221,90.399758 89.190517 1 1 -0.21285,-0.04488"
     inkscape:connector-curvature="0"
     style="fill:#008000;fill-opacity:1;stroke:#c27f83;stroke-width:0.75286;stroke-opacity:0.52597" />
  <path
     id="path2170-5"
     d="m 541.66988,41.502933 a 209.01223,225.08965 0 1 1 -0.49038,0.0979"
     inkscape:connector-curvature="0"
     style="fill:#7c8eff;fill-opacity:1" />
  <path
     id="path2174-6"
     d="m 594.98138,91.156873 a 117.55644,122.82701 0 1 1 -0.27127,0.04723"
     inkscape:connector-curvature="0"
     style="fill:#cdd4ff;fill-opacity:1;stroke:#c27f83;stroke-width:1.48456;stroke-opacity:0.23026" />
  <path
     id="path2178-2"
     d="m 149.10616,378.05543 484.11938,-45.3088"
     inkscape:connector-curvature="0"
     style="fill:none;stroke:#000000;stroke-width:2;stroke-miterlimit:4;stroke-dasharray:2, 8;stroke-dashoffset:0"
     sodipodi:nodetypes="cc" />
  <path
     id="path2180-9"
     d="M 138.08476,35.797085 623.57759,89.461567"
     inkscape:connector-curvature="0"
     style="fill:none;stroke:#000000;stroke-width:2;stroke-miterlimit:4;stroke-dasharray:2, 8;stroke-dashoffset:0"
     sodipodi:nodetypes="cc" />
  <text
     id="text4351-1"
     style="font-style:italic;font-variant:normal;font-weight:normal;font-stretch:normal;font-size:56px;line-height:0%;font-family:serif;-inkscape-font-specification:'Serif Italic';text-align:justify;fill:#000000;fill-opacity:1"
     xml:space="preserve"
     font-size="72px"
     y="462.22614"
     x="124.97131"><tspan
       id="tspan4353-2"
       y="462.22614"
       x="124.97131"
       style="font-style:italic;font-variant:normal;font-weight:normal;font-stretch:normal;font-size:56px;font-family:serif;-inkscape-font-specification:'Serif Italic';fill:#000000;fill-opacity:1">X</tspan></text>
  <text
     id="text4355-7"
     style="font-style:italic;font-variant:normal;font-weight:normal;font-stretch:normal;font-size:56px;line-height:0%;font-family:serif;-inkscape-font-specification:'Serif Italic';text-align:justify;fill:#000000;fill-opacity:1"
     xml:space="preserve"
     font-size="72px"
     y="437.51379"
     x="560.26685"><tspan
       id="tspan4357-0"
       y="437.51379"
       x="560.26685"
       style="font-style:italic;font-variant:normal;font-weight:normal;font-stretch:normal;font-size:56px;font-family:serif;-inkscape-font-specification:'Serif Italic';fill:#000000;fill-opacity:1">Y</tspan></text>
  <path
     id="path5344-6"
     d="m 649.97202,143.44718 a 7,7 0 0 1 -14,0 7,7 0 1 1 14,0 z"
     inkscape:connector-curvature="0"
     style="fill:#000000;fill-opacity:1;fill-rule:evenodd" />
  <path
     sodipodi:nodetypes="cc"
     id="path5352-2"
     d="m 143.10108,103.98639 484.0521,37.49253"
     inkscape:connector-curvature="0"
     style="fill:none;stroke:#000000;stroke-width:3;stroke-miterlimit:4;stroke-dasharray:none;stroke-opacity:1;marker-start:url(#DotM-3);marker-end:url(#Arrow1Lend-7)" />
  <path
     sodipodi:nodetypes="cc"
     id="path5352-2-9"
     d="m 159.22155,177.2926 449.69016,19.32702"
     inkscape:connector-curvature="0"
     style="fill:none;stroke:#000000;stroke-width:3;stroke-miterlimit:4;stroke-dasharray:none;stroke-opacity:1;marker-start:url(#DotM-3-9);marker-end:url(#Arrow1Lend-7-2)" />
  <path
     sodipodi:nodetypes="cc"
     id="path5354-6"
     d="m 115.9114,249.89389 518.94994,9.46753"
     inkscape:connector-curvature="0"
     style="fill:none;stroke:#000000;stroke-width:3;stroke-miterlimit:4;stroke-dasharray:none;stroke-opacity:1;marker-start:url(#DotM-3);marker-end:url(#Arrow1Lend-7)" />
  <path
     sodipodi:nodetypes="cc"
     id="path5356-1"
     d="m 140.62954,328.43644 494.2318,-69.07502"
     inkscape:connector-curvature="0"
     style="fill:none;stroke:#000000;stroke-width:3;stroke-miterlimit:4;stroke-dasharray:none;stroke-opacity:1;marker-start:url(#DotM-3);marker-end:url(#Arrow1Lend-7)" />
  <text
     id="text2186-8"
     xml:space="preserve"
     font-size="64px"
     y="569.63831"
     x="283.99664"
     style="font-style:italic;font-variant:normal;font-weight:normal;font-stretch:normal;line-height:0%;font-family:serif;-inkscape-font-specification:'Serif Italic'"><tspan
       style="font-style:italic;font-size:56px;line-height:1.25;font-family:serif;-inkscape-font-specification:'Serif Italic'"
       y="569.63831"
       x="283.99664"
       id="tspan5191-7"
       sodipodi:role="line">f <tspan
   style="font-size:65%;baseline-shift:super"
   id="tspan7410">-1</tspan> <tspan
   style="font-style:normal;font-family:serif"
   id="tspan3015-9">:</tspan> Y <tspan
   style="font-style:normal;font-family:serif"
   id="tspan3017-2">→</tspan> X</tspan></text>
  <use
     height="768"
     width="1024"
     transform="translate(-14.877969,53.942157)"
     id="use3846-3"
     xlink:href="#path5344-6"
     y="0"
     x="0" />
  <use
     height="768"
     width="1024"
     transform="translate(16.517533,113.13669)"
     id="use3848-7"
     xlink:href="#path5344-6"
     y="0"
     x="0" />
</svg>
